<svg width="164" height="164" viewBox="0 0 164 164" fill="none" xmlns="http://www.w3.org/2000/svg">
<g clip-path="url(#clip0_211_47)">
<rect y="163.2" width="163.2" height="163.2" rx="81.6" transform="rotate(-90 0 163.2)" fill="white"/>
<g clip-path="url(#clip1_211_47)">
<path d="M93.1201 93.12L70.0801 70.08" stroke="#03455B" stroke-width="3.072" stroke-linecap="round" stroke-linejoin="round"/>
<path d="M70.0801 88.8V70.08H88.8001" stroke="#03455B" stroke-width="3.072" stroke-linecap="round" stroke-linejoin="round"/>
</g>
<path d="M118.501 22.7733L113.231 32.6229L112.077 32.0053L110.848 21.4L110.751 21.3486L106.614 29.0821L105.421 28.4439L110.691 18.5943L111.845 19.2119L113.084 29.8467L113.18 29.8982L117.328 22.1454L118.501 22.7733Z" fill="#03455B"/>
<path d="M116.673 34.9634L115.588 34.0498L125.921 28.1477L126.989 29.0472L122.931 40.2339L121.846 39.3203L125.35 29.9773L125.284 29.9211L116.673 34.9634ZM119.884 31.963L124.257 35.6453L123.484 36.5632L119.111 32.8809L119.884 31.963Z" fill="#03455B"/>
<path d="M135.443 42.0002C135.834 41.6038 136.003 41.1285 135.951 40.5742C135.899 40.02 135.661 39.4787 135.239 38.9505C134.93 38.5643 134.597 38.2763 134.24 38.0866C133.886 37.8997 133.535 37.8128 133.187 37.8258C132.841 37.8417 132.529 37.9609 132.251 38.1835C132.018 38.3697 131.862 38.5852 131.783 38.83C131.709 39.0753 131.687 39.3303 131.717 39.595C131.75 39.8573 131.808 40.1135 131.892 40.3634C131.978 40.611 132.065 40.8327 132.151 41.0287L132.621 42.1055C132.744 42.3804 132.863 42.699 132.981 43.0613C133.101 43.4265 133.172 43.8095 133.195 44.2105C133.222 44.612 133.163 45.009 133.016 45.4014C132.868 45.7938 132.59 46.1535 132.181 46.4806C131.71 46.8576 131.185 47.0748 130.607 47.1321C130.031 47.1922 129.443 47.0763 128.841 46.7843C128.242 46.4952 127.675 46.0155 127.139 45.3453C126.639 44.7206 126.307 44.0989 126.143 43.4805C125.981 42.8649 125.976 42.2822 126.128 41.7325C126.282 41.1856 126.584 40.7043 127.034 40.2887L127.906 41.3792C127.599 41.671 127.415 41.9998 127.354 42.3655C127.297 42.7318 127.336 43.1061 127.469 43.4883C127.608 43.8711 127.816 44.2357 128.093 44.5822C128.415 44.9854 128.77 45.2952 129.157 45.5117C129.548 45.7258 129.935 45.8323 130.321 45.8312C130.709 45.8279 131.063 45.699 131.381 45.4446C131.67 45.2129 131.841 44.9435 131.894 44.6363C131.946 44.329 131.923 43.9979 131.826 43.643C131.728 43.288 131.599 42.9231 131.439 42.5483L130.887 41.2296C130.538 40.3913 130.386 39.628 130.432 38.9397C130.477 38.2514 130.794 37.6722 131.382 37.2021C131.87 36.8114 132.402 36.6027 132.977 36.5761C133.556 36.5501 134.126 36.6808 134.687 36.9682C135.253 37.2562 135.758 37.6785 136.203 38.2351C136.653 38.7973 136.952 39.3778 137.1 39.9764C137.251 40.5727 137.255 41.1372 137.113 41.6699C136.974 42.2054 136.689 42.6563 136.261 43.0225L135.443 42.0002Z" fill="#03455B"/>
<path d="M131.812 51.2956L141.711 46.1183L142.338 47.317L137.427 49.8854L137.488 50.0014L144.724 51.8797L145.543 53.4457L138.903 51.6248L135.644 58.623L134.886 57.173L137.687 51.325L135.648 50.8157L132.439 52.4943L131.812 51.2956Z" fill="#03455B"/>
<path d="M137.024 62.0513L136.626 60.69L148.499 61.4929L148.891 62.8332L139.319 69.9044L138.922 68.5432L147.011 62.7008L146.986 62.617L137.024 62.0513ZM141.359 61.3296L142.963 66.8163L141.811 67.153L140.207 61.6662L141.359 61.3296Z" fill="#03455B"/>
<path d="M151.091 72.6654L146.704 75.9281L146.711 76.0151L151.585 78.4917L151.72 80.0787L145.858 77.051L140.589 81.0235L140.454 79.4365L144.755 76.1812L144.747 76.0942L139.96 73.6102L139.825 72.0232L145.695 75.1379L150.956 71.0784L151.091 72.6654Z" fill="#03455B"/>
<path d="M140.561 84.5591L151.669 85.7442L150.954 92.4479L149.761 92.3206L150.332 86.9619L146.579 86.5615L146.045 91.5731L144.851 91.4458L145.386 86.4342L141.611 86.0315L141.03 91.4769L139.837 91.3496L140.561 84.5591Z" fill="#03455B"/>
<path d="M137.474 101.255L147.711 105.726L147.17 106.966L142.611 104.974L140.227 110.433L144.786 112.424L144.244 113.664L134.007 109.192L134.549 107.953L139.127 109.953L141.512 104.494L136.933 102.494L137.474 101.255Z" fill="#03455B"/>
<path d="M136.989 125.014L136.198 126.112L130.197 121.788C129.577 121.341 129.13 120.797 128.853 120.154C128.578 119.516 128.49 118.832 128.59 118.102C128.694 117.374 129.001 116.655 129.514 115.944C130.026 115.233 130.611 114.713 131.269 114.385C131.93 114.059 132.607 113.924 133.302 113.981C133.997 114.042 134.654 114.296 135.274 114.743L141.274 119.067L140.484 120.164L134.571 115.904C134.129 115.585 133.665 115.399 133.179 115.345C132.697 115.293 132.227 115.375 131.77 115.593C131.314 115.816 130.904 116.179 130.54 116.684C130.177 117.188 129.962 117.692 129.895 118.195C129.831 118.7 129.901 119.172 130.105 119.611C130.31 120.054 130.634 120.435 131.076 120.754L136.989 125.014Z" fill="#03455B"/>
<path d="M132.033 130.987L130.813 132.044L121.872 127.521L121.773 127.607L124.975 137.101L123.755 138.158L116.441 129.715L117.397 128.886L122.954 135.301L123.037 135.23L120.118 126.529L121.042 125.729L129.237 129.858L129.32 129.787L123.763 123.372L124.719 122.543L132.033 130.987Z" fill="#03455B"/>
<path d="M113.023 131.894L114.275 131.228L115.906 143.015L114.673 143.672L105.802 135.74L107.053 135.073L114.42 141.804L114.497 141.763L113.023 131.894ZM114.612 135.992L109.567 138.679L109.003 137.62L114.048 134.933L114.612 135.992Z" fill="#03455B"/>
<path d="M97.5439 150.17L94.4278 139.443L95.6849 139.077L103.977 145.802L104.082 145.772L101.635 137.349L102.934 136.972L106.051 147.699L104.793 148.064L96.474 141.325L96.3693 141.355L98.822 149.799L97.5439 150.17Z" fill="#03455B"/>
<path d="M90.8368 151.247L89.4701 140.16L90.8126 139.994L92.1794 151.081L90.8368 151.247Z" fill="#03455B"/>
<path d="M85.0715 150.669L85.0515 151.869L76.6744 151.728L76.6945 150.529L80.2068 150.587L80.3736 140.618L81.7261 140.641L81.5593 150.61L85.0715 150.669Z" fill="#03455B"/>
<path d="M74.1257 140.232L75.5144 140.52L69.2315 150.627L67.8642 150.343L66.1141 138.572L67.5028 138.86L68.8637 148.746L68.9491 148.763L74.1257 140.232ZM72.7277 144.399L67.1302 143.239L67.3737 142.064L72.9711 143.224L72.7277 144.399Z" fill="#03455B"/>
<path d="M63.1102 137.62L58.7685 147.913L55.2907 146.446C54.4866 146.107 53.8845 145.691 53.4844 145.199C53.0829 144.709 52.8585 144.175 52.8113 143.594C52.7641 143.014 52.8683 142.421 53.1242 141.814C53.38 141.208 53.7308 140.722 54.1766 140.358C54.6224 139.993 55.1581 139.785 55.7838 139.733C56.4081 139.685 57.1189 139.829 57.9163 140.165L60.7307 141.353L60.2559 142.478L57.4817 141.308C56.9322 141.076 56.456 140.97 56.0531 140.99C55.6469 141.008 55.3062 141.132 55.031 141.364C54.7511 141.597 54.5243 141.919 54.3504 142.332C54.1766 142.744 54.1017 143.136 54.1258 143.51C54.1499 143.883 54.2958 144.225 54.5636 144.535C54.8299 144.848 55.2411 145.123 55.7973 145.357L57.9885 146.282L61.8638 137.095L63.1102 137.62ZM56.315 140.2L55.7325 134.508L57.1799 135.119L57.7222 140.794L56.315 140.2Z" fill="#03455B"/>
<path d="M46.084 141.793L51.8914 132.25L53.047 132.953L47.2396 142.496L46.084 141.793Z" fill="#03455B"/>
<path d="M47.3663 129.401L48.45 130.315L38.1102 136.206L37.0432 135.306L41.1139 124.123L42.1976 125.038L38.6832 134.377L38.7499 134.434L47.3663 129.401ZM44.1516 132.397L39.7832 128.71L40.5572 127.793L44.9256 131.48L44.1516 132.397Z" fill="#03455B"/>
<path d="M24.6553 121.783L33.4737 114.925L34.2773 115.958L31.0903 126.148L31.1573 126.234L38.0811 120.85L38.9115 121.918L30.0931 128.775L29.2895 127.742L32.4803 117.522L32.4134 117.436L25.4723 122.833L24.6553 121.783Z" fill="#03455B"/>
<path d="M28.6178 106.132L18.1514 110.036L15.8103 103.761L16.9347 103.341L18.8029 108.35L22.3394 107.03L20.6465 102.492L21.7709 102.073L23.4638 106.611L28.145 104.865L28.6178 106.132Z" fill="#03455B"/>
<path d="M18.1156 87.8622C19.2787 87.6746 20.3178 87.7226 21.2328 88.006C22.1477 88.2894 22.894 88.7603 23.4716 89.4185C24.0492 90.0768 24.4139 90.8762 24.5655 91.8168C24.7172 92.7574 24.6223 93.6309 24.2809 94.4374C23.9394 95.2438 23.3789 95.9254 22.5994 96.482C21.8199 97.0386 20.8486 97.4107 19.6854 97.5983C18.5223 97.7858 17.4832 97.7379 16.5682 97.4545C15.6533 97.171 14.907 96.7002 14.3294 96.0419C13.7518 95.3837 13.3871 94.5842 13.2355 93.6437C13.0838 92.7031 13.1787 91.8296 13.5202 91.0231C13.8616 90.2167 14.4221 89.5351 15.2016 88.9785C15.9811 88.4218 16.9524 88.0497 18.1156 87.8622ZM18.324 89.1546C17.369 89.3086 16.5888 89.5983 15.9834 90.0237C15.3774 90.4456 14.9493 90.9547 14.6993 91.5512C14.4486 92.1441 14.3771 92.7745 14.4848 93.4422C14.5925 94.11 14.8587 94.6877 15.2836 95.1753C15.7079 95.6594 16.2743 96.0083 16.9828 96.2218C17.6907 96.4318 18.5221 96.4598 19.477 96.3059C20.432 96.1519 21.2125 95.864 21.8185 95.4421C22.4239 95.0167 22.852 94.5075 23.1026 93.9146C23.3527 93.3181 23.4239 92.686 23.3162 92.0182C23.2085 91.3505 22.9426 90.7746 22.5183 90.2905C22.0934 89.8028 21.527 89.454 20.8191 89.244C20.1106 89.0304 19.2789 89.0006 18.324 89.1546Z" fill="#03455B"/>
<path d="M12.6909 75.7282L12.7669 74.3776L20.1516 74.7933C20.914 74.8362 21.5846 75.0542 22.1635 75.4474C22.7389 75.8367 23.1807 76.366 23.4891 77.0353C23.7938 77.7044 23.9215 78.4764 23.8722 79.3514C23.823 80.2264 23.6094 80.9792 23.2316 81.6098C22.8501 82.2403 22.3515 82.7185 21.7359 83.0444C21.1168 83.3665 20.426 83.5061 19.6636 83.4632L12.2789 83.0475L12.3549 81.6969L19.6307 82.1065C20.1753 82.1371 20.6667 82.0446 21.105 81.8289C21.5396 81.613 21.891 81.2904 22.1592 80.8611C22.424 80.4281 22.5738 79.9011 22.6088 79.2803C22.6437 78.6594 22.5539 78.119 22.3395 77.6589C22.1213 77.1987 21.8084 76.8387 21.4005 76.579C20.9892 76.3155 20.5112 76.1684 19.9667 76.1377L12.6909 75.7282Z" fill="#03455B"/>
<path d="M16.05 59.7449L26.8131 62.7357L26.4626 63.997L16.3821 67.5138L16.3529 67.6189L24.8036 69.9672L24.4414 71.2705L13.6783 68.2796L14.0288 67.0183L24.1362 63.4864L24.1654 63.3813L15.6937 61.0272L16.05 59.7449Z" fill="#03455B"/>
<path d="M29.7714 56.0895L28.1847 59.1499L18.2675 54.0081L19.9245 50.8121C20.4233 49.8501 21.0486 49.1298 21.8005 48.6513C22.5492 48.1711 23.3878 47.9403 24.3162 47.9588C25.2414 47.9756 26.2172 48.2501 27.2438 48.7824C28.2769 49.318 29.0709 49.9631 29.6258 50.7178C30.1775 51.4708 30.471 52.3029 30.5065 53.2142C30.5387 54.1239 30.2937 55.0823 29.7714 56.0895ZM27.742 57.3966L28.6659 55.6146C29.0911 54.7947 29.2852 54.0331 29.2484 53.33C29.2115 52.6268 28.9696 51.9914 28.5225 51.4237C28.0754 50.8561 27.4483 50.363 26.6413 49.9446C25.8407 49.5295 25.0837 49.3029 24.3702 49.2648C23.6536 49.225 23.0055 49.3846 22.4261 49.7437C21.8435 50.1011 21.3514 50.6672 20.9497 51.442L19.9555 53.3595L27.742 57.3966Z" fill="#03455B"/>
<path d="M34.1319 48.5765L33.2516 49.6884L27.0392 39.5385L27.9059 38.4437L39.2104 42.1616L38.3302 43.2735L28.8853 40.0538L28.8311 40.1223L34.1319 48.5765ZM31.0357 45.4574L34.5839 40.9755L35.5247 41.7203L31.9765 46.2022L31.0357 45.4574Z" fill="#03455B"/>
<path d="M33.639 33.6318L32.8532 32.7249L39.1854 27.2388L39.9712 28.1457L37.3163 30.4459L43.8453 37.9819L42.8229 38.8676L36.2939 31.3317L33.639 33.6318Z" fill="#03455B"/>
<path d="M44.4161 23.6521L50.4045 33.0822L49.2626 33.8074L43.2741 24.3772L44.4161 23.6521Z" fill="#03455B"/>
<path d="M60.9946 21.5845C61.4587 22.6674 61.6643 23.687 61.6113 24.6434C61.5584 25.5998 61.2826 26.438 60.7842 27.1581C60.2857 27.8781 59.5986 28.4258 58.7229 28.8011C57.8472 29.1764 56.9768 29.2963 56.1116 29.1607C55.2464 29.0251 54.4493 28.6468 53.7201 28.0256C52.991 27.4044 52.3944 26.5524 51.9303 25.4694C51.4661 24.3865 51.2605 23.3669 51.3135 22.4105C51.3665 21.4541 51.6422 20.6159 52.1407 19.8958C52.6392 19.1758 53.3262 18.6281 54.2019 18.2528C55.0776 17.8775 55.948 17.7576 56.8132 17.8932C57.6784 18.0288 58.4756 18.4071 59.2047 19.0283C59.9338 19.6495 60.5305 20.5016 60.9946 21.5845ZM59.7914 22.1002C59.4103 21.2111 58.94 20.5245 58.3804 20.0404C57.8241 19.5548 57.2263 19.2631 56.5869 19.1652C55.9509 19.0659 55.3221 19.1495 54.7004 19.4159C54.0788 19.6824 53.5829 20.0808 53.2129 20.6113C52.8462 21.1404 52.6452 21.7745 52.6099 22.5136C52.5779 23.2513 52.7524 24.0647 53.1335 24.9537C53.5145 25.8428 53.9832 26.5301 54.5395 27.0157C55.0991 27.4998 55.6969 27.7916 56.3329 27.8909C56.9722 27.9887 57.6028 27.9044 58.2244 27.638C58.8461 27.3715 59.3403 26.9738 59.707 26.4447C60.077 25.9143 60.278 25.2802 60.31 24.5425C60.3453 23.8033 60.1724 22.9892 59.7914 22.1002Z" fill="#03455B"/>
<path d="M72.9489 13.077L75.0538 24.0478L73.7682 24.2944L66.1372 16.8277L66.0301 16.8482L67.6828 25.462L66.3543 25.7169L64.2494 14.7461L65.535 14.4994L73.1915 21.9835L73.2986 21.963L71.6418 13.3278L72.9489 13.077Z" fill="#03455B"/>
<path d="M85.7957 23.9619C85.5275 23.9398 85.3053 23.8247 85.1292 23.6167C84.953 23.4088 84.876 23.1707 84.8981 22.9025C84.9203 22.6344 85.0354 22.4122 85.2433 22.236C85.4513 22.0598 85.6894 21.9828 85.9575 22.005C86.2257 22.0272 86.4479 22.1422 86.6241 22.3502C86.8003 22.5581 86.8773 22.7962 86.8551 23.0644C86.8404 23.242 86.7816 23.4013 86.6787 23.5424C86.5795 23.6838 86.4518 23.7936 86.2957 23.8719C86.1436 23.9469 85.9769 23.9769 85.7957 23.9619Z" fill="#03455B"/>
<path d="M92.1959 24.7348C91.9318 24.6829 91.7238 24.5439 91.5718 24.3177C91.4198 24.0914 91.3697 23.8463 91.4215 23.5822C91.4734 23.3182 91.6124 23.1101 91.8386 22.9581C92.0649 22.8061 92.31 22.7561 92.5741 22.8079C92.8381 22.8597 93.0461 22.9988 93.1981 23.225C93.3501 23.4512 93.4002 23.6964 93.3484 23.9604C93.3141 24.1353 93.238 24.2871 93.12 24.4159C93.0057 24.5454 92.8666 24.6404 92.7028 24.7009C92.5432 24.7585 92.3743 24.7698 92.1959 24.7348Z" fill="#03455B"/>
<circle cx="81.6" cy="81.6" r="47.424" transform="rotate(-90 81.6 81.6)" stroke="#BAC7D4" stroke-width="1.152"/>
</g>
<rect x="0.48" y="162.72" width="162.24" height="162.24" rx="81.12" transform="rotate(-90 0.48 162.72)" stroke="#BAC7D4" stroke-width="0.96"/>
<defs>
<clipPath id="clip0_211_47">
<rect y="163.2" width="163.2" height="163.2" rx="81.6" transform="rotate(-90 0 163.2)" fill="white"/>
</clipPath>
<clipPath id="clip1_211_47">
<rect width="46.08" height="46.08" fill="white" transform="matrix(0 -1 1 0 58.5601 104.64)"/>
</clipPath>
</defs>
</svg>
